# xmcd CD database file
#
# Track frame offsets:
#	150
#	33542
#	60232
#	83597
#	115112
#	140187
#	171700
#	208895
#	247857
#
# Disc length: 3587 seconds
#
# Revision: 0
# Processed by: cddbd v1.5.1PL0 Copyright (c) Steve Scherf et al.
# Submitted via: CDex 1.51
#
DISCID=7d0e0109
DTITLE=Larry Russell - Nostalgia
DYEAR=1900
DGENRE=Jazz
TTITLE0=besame mucho
TTITLE1=estrellita
TTITLE2=cuando vuelva a tu lado
TTITLE3=la mentira
TTITLE4=autumn leaves
TTITLE5=misty
TTITLE6=moon glow
TTITLE7=roun midnight
TTITLE8=as time goes by
EXTD=
EXTT0=
EXTT1=
EXTT2=
EXTT3=
EXTT4=
EXTT5=
EXTT6=
EXTT7=
EXTT8=
PLAYORDER=
